<svg xmlns="http://www.w3.org/2000/svg" xmlns:xlink="http://www.w3.org/1999/xlink" viewBox="0 0 104.53 92.52"><defs><style>.cls-1{fill:none;stroke-linecap:round;stroke-linejoin:round;stroke-width:6px;stroke:url(#linear-gradient);}.cls-2{fill:url(#linear-gradient-2);}</style><linearGradient id="linear-gradient" y1="46.26" x2="104.53" y2="46.26" gradientUnits="userSpaceOnUse"><stop offset="0" stop-color="#0de7da"/><stop offset="0.21" stop-color="#15e6c5"/><stop offset="0.74" stop-color="#26e395"/><stop offset="1" stop-color="#2de282"/></linearGradient><linearGradient id="linear-gradient-2" x1="41.11" y1="31.03" x2="109.87" y2="54.24" gradientUnits="userSpaceOnUse"><stop offset="0.06" stop-color="#0de7da"/><stop offset="0.25" stop-color="#15e6c5"/><stop offset="0.71" stop-color="#26e395"/><stop offset="0.93" stop-color="#2de282"/></linearGradient></defs><title>hodei-favicon</title><g id="Layer_2" data-name="Layer 2"><g id="Layer_1-2" data-name="Layer 1"><path class="cls-1" d="M60.67,3s-37-2-37,34c-28.24,4.56-29,53,6.79,52.5,25.51-.36,71.07,0,71.07,0"/><path class="cls-2" d="M90.16,33.89c-.17,7.4-2.89,13.3-3.22,13.23-.49-.1,4.89-13.53-.88-22.8-2.81-4.5-7.52-6.76-11.26-8V59.59c-.16,5.46-3.1,10.52-11,13.87S48.1,76,46.26,71.63s3.06-10.57,10.93-13.88c5.8-2.45,11.6-2.67,15-.87V2.69c0-1.17,2-2.17,3.23-.34a27.76,27.76,0,0,0,4.87,7.47C85,15.49,90.4,23.8,90.16,33.89Z"/></g></g></svg>