<?xml version="1.0" standalone="no"?>
<!DOCTYPE svg PUBLIC "-//W3C//DTD SVG 20010904//EN"
 "http://www.w3.org/TR/2001/REC-SVG-20010904/DTD/svg10.dtd">
<svg version="1.0" xmlns="http://www.w3.org/2000/svg"
 width="840.000000pt" height="840.000000pt" viewBox="0 0 840.000000 840.000000"
 preserveAspectRatio="xMidYMid meet">
<metadata>
Created by potrace 1.14, written by Peter Selinger 2001-2017
</metadata>
<g transform="translate(0.000000,840.000000) scale(0.100000,-0.100000)"
fill="#000000" stroke="none">
<path d="M4510 7903 c-203 -15 -498 -65 -701 -117 -660 -172 -1180 -488 -1548
-939 -328 -403 -551 -996 -586 -1561 -9 -135 -13 -156 -33 -156 -39 0 -267
-85 -387 -145 -664 -328 -1100 -960 -1232 -1790 -22 -140 -25 -573 -5 -710 84
-556 296 -999 646 -1348 170 -170 349 -296 577 -406 236 -114 456 -181 734
-222 139 -20 159 -21 3200 -22 2820 0 3062 1 3091 16 203 106 164 406 -58 457
-41 10 -744 13 -3073 15 -2768 2 -3028 4 -3120 19 -366 61 -655 186 -902 391
-297 246 -497 596 -590 1030 -26 124 -27 143 -28 400 0 217 4 289 18 365 152
810 642 1354 1359 1505 125 26 163 43 210 92 51 53 60 92 69 309 24 576 164
1017 442 1393 425 575 1197 916 2144 946 224 8 254 16 317 86 70 78 83 176 36
269 -25 48 -93 107 -139 120 -33 9 -334 11 -441 3z"/>
<path d="M5852 7780 c-18 -11 -37 -32 -42 -46 -6 -16 -10 -813 -10 -2205 0
-1198 -2 -2179 -5 -2179 -4 0 -20 7 -37 16 -17 9 -74 27 -126 40 -497 126
-1263 -129 -1677 -557 -161 -166 -243 -312 -265 -470 -20 -137 27 -267 131
-363 267 -248 863 -228 1424 48 195 96 301 171 440 310 175 176 258 328 304
553 21 100 21 125 21 1882 0 1459 2 1781 13 1781 7 0 58 -18 114 -39 475 -186
783 -486 911 -891 95 -301 107 -630 36 -1040 -20 -119 -74 -368 -100 -467 -4
-14 -2 -23 5 -23 28 0 119 234 171 440 232 911 4 1707 -739 2590 -125 149
-239 319 -318 477 -43 87 -66 121 -93 139 -44 30 -112 32 -158 4z"/>
</g>
</svg>
