<?xml version="1.0" encoding="UTF-8"?>
<svg id="Calque_2" data-name="Calque 2" xmlns="http://www.w3.org/2000/svg" xmlns:xlink="http://www.w3.org/1999/xlink" viewBox="0 0 561 561">
  <defs>
    <style>
      .cls-1 {
        fill: url(#linear-gradient-2);
      }

      .cls-2 {
        fill: #452c78;
      }

      .cls-3 {
        stroke: url(#linear-gradient);
        stroke-linecap: round;
        stroke-linejoin: round;
        stroke-width: 32px;
      }

      .cls-3, .cls-4 {
        fill: none;
      }
    </style>
    <linearGradient id="linear-gradient" x1="68.58" y1="283.78" x2="492.42" y2="283.78" gradientUnits="userSpaceOnUse">
      <stop offset="0" stop-color="#0de7da"/>
      <stop offset=".21" stop-color="#14e5c4"/>
      <stop offset=".74" stop-color="#26e394"/>
      <stop offset="1" stop-color="#2de282"/>
    </linearGradient>
    <linearGradient id="linear-gradient-2" x1="235.09" y1="223.74" x2="506.78" y2="315.48" gradientUnits="userSpaceOnUse">
      <stop offset=".06" stop-color="#0de7da"/>
      <stop offset=".25" stop-color="#14e5c4"/>
      <stop offset=".71" stop-color="#26e394"/>
      <stop offset=".93" stop-color="#2de282"/>
    </linearGradient>
  </defs>
  <g id="Layer_1" data-name="Layer 1">
    <g>
      <g>
        <rect class="cls-2" width="561" height="561" rx="60.79" ry="60.79"/>
        <rect class="cls-4" x="31.41" y="42.07" width="498.18" height="476.86"/>
        <path class="cls-3" d="m312.45,112.92s-146.19-7.9-146.19,134.34c-111.6,18-114.58,209.41,26.84,207.43,100.79-1.41,283.32,0,283.32,0"/>
      </g>
      <path class="cls-1" d="m428.97,234.89c-.67,29.24-11.42,52.55-12.72,52.27-1.94-.4,19.32-53.46-3.48-90.09-11.1-17.78-29.71-26.71-44.49-31.45v170.81c-.63,21.57-12.25,41.57-43.38,54.8-31.13,13.28-62.11,9.92-69.38-7.23-7.27-17.19,12.09-41.76,43.19-54.84,22.92-9.68,40.54-13.04,53.89-5.93V112.24c0-4.62,13.2-9.2,18.06-1.97.67,1,4.82,13.08,19.24,29.51,18.57,22.4,40.02,55.24,39.08,95.1Z"/>
    </g>
  </g>
</svg>